<svg id="Capa_1" enable-background="new 0 0 512 512" height="512" viewBox="0 0 512 512" width="512" xmlns="http://www.w3.org/2000/svg"><g><path d="m334.483 106.909c8.391-4.466 15.965-10.581 22.357-17.575 9.985-10.925 16.659-24.524 18.274-39.247.179-1.629-.622-3.213-2.04-4.033-12.645-7.316-27.334-10.027-41.863-8.576-11.813 1.179-24.056 4.565-33.944 11.39-15.749 10.871-28.528 27.074-32.578 46.148-.696 3.279-2.971 10.202.96 12.342 3.638 1.981 7.463 3.615 11.409 4.88 18.496 5.93 40.201 3.838 57.425-5.329z" fill="#00c27a"/><path d="m375.118 50.088c-1.617 14.725-8.289 28.317-18.277 39.242-6.394 7.002-13.963 13.118-22.355 17.577-17.227 9.164-38.933 11.265-57.426 5.334-3.944-1.267-7.774-2.904-11.409-4.881-1.431-.783-2.265-2.327-2.132-3.944.103-1.277.206-2.605.247-2.914.021-.144.031-.278.062-.422 18.092 5.262 38.984 3.017 55.666-5.869 8.392-4.458 15.96-10.575 22.355-17.567 9.339-10.215 15.785-22.777 17.896-36.4 4.623 1.421 9.092 3.357 13.335 5.807 1.409.824 2.213 2.41 2.038 4.037z" fill="#08b865"/><path d="m241.033 117.825c-2.676-18.319-6.267-67.892-2.921-98.273 1.507-13.679 15.044-22.635 28.188-18.559.188.058.376.116.565.174 10.525 3.234 16.956 13.83 15.046 24.673-3.371 19.136-7.746 64.853-8.057 89.749-.113 9.059-7.435 16.364-16.495 16.364-8.198.001-15.141-6.016-16.326-14.128z" fill="#d77f4a"/><path d="m281.909 25.838c-3.367 19.142-7.743 64.851-8.052 89.749-.113 9.061-7.434 16.362-16.496 16.362-3.81 0-7.362-1.298-10.173-3.511 3.81-2.986 6.271-7.63 6.333-12.851.309-24.898 4.685-70.607 8.052-89.749 1.709-9.669-3.223-19.142-11.769-23.364 4.87-2.554 10.719-3.274 16.496-1.483.185.062.381.113.566.175 10.523 3.234 16.958 13.83 15.043 24.672z" fill="#c86d36"/><path d="m292.941 132.088c-3.453-1.097-5.796-4.311-5.772-7.934.008-1.227-.055-2.471-.193-3.728-1.631-14.857-13.927-26.59-28.84-27.584-18.181-1.212-33.306 13.177-33.306 31.098v.065c.007 3.678-2.271 6.971-5.776 8.085-62.326 19.81-108.308 88.539-108.308 170.295 0 81.758 45.985 150.489 108.313 170.297 3.453 1.097 5.796 4.311 5.772 7.934-.008 1.229.055 2.474.193 3.733 1.633 14.857 13.932 26.589 28.846 27.58 18.179 1.208 33.3-13.179 33.3-31.099 0-.022 0-.043 0-.065-.007-3.678 2.271-6.97 5.776-8.085 62.326-19.81 108.308-88.539 108.308-170.295 0-81.758-45.984-150.489-108.313-170.297z" fill="#fee45a"/><path d="m401.25 302.385c0 81.758-45.976 150.481-108.304 170.292-3.501 1.122-5.787 4.407-5.776 8.083v.072c0 17.917-15.116 32.302-33.301 31.097-3.81-.257-7.445-1.205-10.781-2.739 12.387-6.549 21.325-23.498 21.325-37.275v-.072c-.01-3.676 2.276-6.961 5.777-8.083 62.328-19.811 108.314-79.617 108.314-161.375s-45.986-142.83-108.314-162.641c-3.46-1.102-5.797-4.314-5.777-7.939.01-1.225-.051-2.461-.196-3.728-1.37-12.501-5.221-27.586-19.575-33.167 4.139-1.627 8.711-2.389 13.489-2.07 14.92.999 27.215 12.727 28.842 27.586.144 1.256.206 2.502.196 3.728-.021 3.625 2.317 6.837 5.776 7.939 62.328 19.801 108.305 88.534 108.305 170.292z" fill="#fedf30"/></g></svg>